<?xml version="1.0" encoding="UTF-8" standalone="no"?>
<!DOCTYPE svg PUBLIC "-//W3C//DTD SVG 20010904//EN" "http://www.w3.org/TR/2001/REC-SVG-20010904/DTD/svg10.dtd">
<svg version="1.0" xmlns="http://www.w3.org/2000/svg" width="1363.000000pt" height="680.000000pt" viewBox="0 0 1363.000000 680.000000" preserveAspectRatio="xMidYMid meet">

<g transform="translate(0.000000,680.000000) scale(0.100000,-0.100000)" fill="#000000" stroke="none">
<path d="M3090 5770 l0 -1030 -1547 -2 -1548 -3 1570 -5 1570 -5 3 -32 3 -33 -1573 -2 -1573 -3 1232 -2 1233 -3 3 -2328 2 -2327 3 2328 c2 2211 3 2328 20 2325 16 -3 17 -124 22 -2328 l5 -2325 3 2328 2 2327 285 0 285 0 0 -160 0 -159 -30 -16 c-91 -47 -91 -197 0 -235 l30 -12 0 -972 0 -972 -33 -16 c-71 -34 -87 -141 -31 -199 15 -16 36 -31 46 -35 17 -5 18 -21 18 -234 l0 -228 -33 -20 c-37 -21 -67 -75 -67 -119 0 -37 33 -90 70 -111 l30 -17 0 -227 c0 -211 -1 -227 -18 -232 -10 -4 -31 -19 -47 -36 -40 -42 -46 -112 -13 -160 13 -19 36 -41 51 -48 l27 -13 0 -215 c0 -136 4 -214 10 -214 6 0 10 78 10 215 0 183 2 215 15 215 12 0 15 -33 18 -217 l2 -218 3 216 2 216 26 14 c48 25 74 66 74 116 0 55 -23 96 -67 120 l-33 18 0 227 c0 166 3 228 12 228 6 0 26 11 44 25 42 32 60 91 44 139 -11 34 -52 79 -82 89 -16 6 -18 26 -18 237 0 204 2 230 16 230 27 0 80 62 88 103 9 50 -17 104 -66 136 l-38 24 0 214 0 213 580 0 580 0 -2 588 -3 587 -577 3 -578 2 0 163 0 162 31 14 c40 18 69 66 69 116 0 53 -18 85 -63 114 l-37 24 -2 1236 -3 1236 -2 -1032 c-3 -909 -5 -1033 -18 -1033 -13 0 -15 123 -15 1030 0 680 -3 1030 -10 1030 -7 0 -10 -350 -10 -1030z m50 -1280 c0 -136 -2 -160 -15 -160 -13 0 -15 24 -15 160 0 136 2 160 15 160 13 0 15 -24 15 -160z m53 -216 c33 -33 41 -57 33 -99 -13 -70 -107 -109 -164 -69 -34 24 -55 71 -48 110 15 78 124 113 179 58z m-53 -1179 c0 -851 -2 -965 -15 -965 -13 0 -15 114 -15 965 0 851 2 965 15 965 13 0 15 -114 15 -965z m1160 50 l0 -575 -575 0 -575 0 0 575 0 575 575 0 575 0 0 -575z m-1119 -1055 c25 -14 49 -62 49 -101 0 -44 -56 -99 -101 -99 -103 0 -150 120 -74 188 28 24 91 30 126 12z m-41 -455 c0 -193 -2 -225 -15 -225 -13 0 -15 32 -15 225 0 193 2 225 15 225 13 0 15 -32 15 -225z m24 -259 c44 -18 66 -52 66 -99 0 -31 -7 -46 -34 -73 -71 -71 -176 -24 -176 78 0 42 23 76 64 94 39 17 40 17 80 0z m-24 -462 c0 -192 -2 -224 -15 -224 -13 0 -15 31 -15 223 0 123 3 227 6 230 19 19 24 -25 24 -229z m41 -267 c93 -62 33 -213 -76 -193 -96 18 -123 147 -41 197 41 25 76 24 117 -4z"/>
<path d="M3217 3653 c-4 -3 -7 -233 -7 -510 l0 -503 515 0 515 0 -2 508 -3 507 -506 3 c-278 1 -509 -1 -512 -5z m1003 -503 l0 -500 -495 0 -495 0 0 500 0 500 495 0 495 0 0 -500z"/>
<path d="M3280 3150 l0 -450 445 0 445 0 -2 448 -3 447 -442 3 -443 2 0 -450z m880 -5 l0 -435 -435 0 -435 0 0 435 0 435 435 0 435 0 0 -435z"/>
<path d="M3681 3287 c-58 -29 -84 -106 -58 -170 36 -85 150 -103 214 -33 32 34 38 53 33 106 -3 36 -35 85 -65 98 -34 15 -94 15 -124 -1z m142 -47 c48 -53 28 -138 -40 -166 -44 -19 -83 -11 -115 24 -32 34 -41 71 -27 112 26 74 127 91 182 30z"/>
<path d="M10480 5568 l0 -1233 -33 -15 c-70 -33 -87 -142 -31 -201 15 -16 36 -31 46 -35 16 -5 18 -20 18 -175 l0 -169 -577 -2 -578 -3 0 -585 0 -585 578 -3 577 -2 0 -223 0 -222 -30 -17 c-39 -22 -70 -74 -70 -119 0 -43 35 -99 73 -117 l27 -13 0 -222 0 -222 -32 -15 c-47 -22 -72 -63 -72 -115 1 -53 23 -89 70 -117 l34 -20 0 -219 0 -218 -29 -16 c-38 -19 -71 -74 -71 -116 0 -43 31 -95 70 -117 l30 -17 0 -217 c0 -139 4 -218 10 -218 6 0 10 78 10 215 0 183 2 215 15 215 12 0 15 -33 18 -217 l2 -218 3 221 2 222 30 12 c57 24 91 100 70 156 -14 36 -48 73 -77 85 -23 8 -23 9 -23 231 l0 223 34 19 c43 23 71 81 63 132 -6 38 -47 89 -79 100 -17 5 -18 21 -18 230 l0 224 23 9 c31 12 77 67 79 94 5 70 -16 115 -66 142 l-36 20 0 980 0 980 32 15 c97 46 95 185 -3 235 l-29 16 0 154 0 155 290 0 290 0 3 -2327 2 -2328 3 2328 c2 2061 4 2327 17 2327 13 0 15 -265 15 -2325 0 -1543 3 -2325 10 -2325 7 0 10 782 10 2325 l0 2325 1228 3 1227 2 -1567 3 -1568 2 0 35 0 35 1568 2 1567 3 -1547 2 -1548 3 -3 1033 -2 1032 -3 -1032 c-2 -911 -4 -1033 -17 -1033 -13 0 -15 121 -15 1030 0 680 -3 1030 -10 1030 -7 0 -10 -418 -10 -1232z m50 -1073 c0 -131 -2 -155 -15 -155 -13 0 -15 24 -15 155 0 131 2 155 15 155 13 0 15 -24 15 -155z m46 -203 c55 -44 59 -109 10 -158 -26 -26 -42 -34 -70 -34 -103 0 -149 127 -69 190 32 25 99 27 129 2z m-46 -1202 c0 -864 -2 -980 -15 -980 -13 0 -15 116 -15 980 0 864 2 980 15 980 13 0 15 -116 15 -980z m-42 58 l-3 -573 -572 -3 -573 -2 0 575 0 575 575 0 575 0 -2 -572z m83 -1081 c93 -62 33 -213 -76 -193 -94 18 -122 144 -42 195 42 27 76 26 118 -2z m-41 -437 c0 -189 -2 -220 -15 -220 -13 0 -15 31 -15 220 0 189 2 220 15 220 13 0 15 -31 15 -220z m51 -279 c63 -64 22 -181 -65 -181 -72 0 -116 42 -116 111 0 22 10 41 34 65 46 46 104 48 147 5z m-51 -431 c0 -189 -2 -220 -15 -220 -13 0 -15 31 -15 220 0 189 2 220 15 220 13 0 15 -31 15 -220z m48 -266 c27 -17 42 -52 42 -96 0 -42 -57 -98 -99 -98 -66 0 -113 44 -113 106 0 89 94 137 170 88z"/>
<path d="M9400 3150 l0 -510 510 0 510 0 0 510 0 510 -510 0 -510 0 0 -510z m1010 0 l0 -500 -500 0 -500 0 0 493 c0 272 3 497 7 500 3 4 228 7 500 7 l493 0 0 -500z"/>
<path d="M9467 3593 c-4 -3 -7 -206 -7 -450 l0 -443 450 0 450 0 -2 448 -3 447 -441 3 c-242 1 -444 -1 -447 -5z m883 -448 l0 -435 -435 0 -435 0 0 435 0 435 435 0 435 0 0 -435z"/>
<path d="M9850 3269 c-94 -38 -115 -159 -40 -223 63 -53 150 -39 197 33 69 103 -41 236 -157 190z m121 -48 c23 -24 29 -38 29 -74 0 -37 -6 -51 -31 -76 -87 -88 -221 18 -164 129 20 38 41 49 93 50 35 0 49 -6 73 -29z"/>
<path d="M0 6401 c0 -6 9 -11 20 -11 19 0 20 -7 20 -234 l0 -235 -22 -4 c-17 -3 -14 -5 10 -6 l32 -1 -2 248 -3 247 -27 3 c-16 2 -28 -1 -28 -7z"/>
<path d="M13580 6384 c-11 -27 -14 -414 -4 -451 5 -17 13 -23 33 -22 23 2 24 2 4 6 l-23 4 0 235 c0 227 1 234 20 234 11 0 20 5 20 10 0 22 -41 9 -50 -16z"/>
<path d="M231 6243 c-95 -47 -93 -198 4 -239 45 -18 69 -18 112 3 97 46 96 198 -2 239 -44 18 -72 17 -114 -3z m131 -42 c28 -25 33 -36 33 -76 0 -40 -5 -51 -33 -76 -24 -22 -42 -29 -72 -29 -30 0 -48 7 -72 29 -48 43 -48 109 0 152 24 22 42 29 72 29 30 0 48 -7 72 -29z"/>
<path d="M4195 5757 c-3 -7 -4 -123 -3 -257 l3 -245 935 0 935 0 0 255 0 255 -933 3 c-748 2 -934 0 -937 -11z m1855 -247 l0 -250 -922 2 -923 3 -3 235 c-1 129 0 240 2 247 4 10 191 13 926 13 l920 0 0 -250z"/>
<path d="M4270 5677 c0 -13 -5 -28 -12 -35 -9 -9 -9 -15 0 -24 16 -16 16 -190 0 -206 -9 -9 -9 -15 0 -24 7 -7 12 -22 12 -35 l0 -23 860 0 860 0 1 28 c3 116 -1 323 -6 332 -4 7 -284 10 -861 10 l-854 0 0 -23z m508 -159 l3 -128 -236 0 -235 0 0 130 0 130 233 -2 232 -3 3 -127z m582 -8 l0 -130 -235 0 -235 0 0 123 c0 68 3 127 7 130 3 4 109 7 235 7 l228 0 0 -130z m590 0 l0 -130 -235 0 -235 0 0 130 0 130 235 0 235 0 0 -130z"/>
<path d="M7575 5757 c-3 -7 -4 -123 -3 -257 l3 -245 933 -3 932 -2 0 260 0 260 -930 0 c-743 0 -932 -3 -935 -13z m1855 -247 l0 -250 -922 2 -923 3 -3 248 -2 247 925 0 925 0 0 -250z"/>
<path d="M7650 5677 c0 -13 -5 -28 -12 -35 -9 -9 -9 -15 0 -24 8 -8 12 -46 12 -103 0 -57 -4 -95 -12 -103 -9 -9 -9 -15 0 -24 7 -7 12 -22 12 -35 l0 -23 860 0 860 0 1 28 c3 116 -1 323 -6 332 -4 7 -284 10 -861 10 l-854 0 0 -23z m500 -157 l0 -130 -235 0 -235 0 0 123 c0 68 3 127 7 130 3 4 109 7 235 7 l228 0 0 -130z m590 -10 l0 -130 -235 0 -235 0 0 130 0 130 235 0 235 0 0 -130z m590 0 l0 -130 -235 0 -235 0 0 130 0 130 235 0 235 0 0 -130z"/>
<path d="M18 5553 l22 -4 0 -239 0 -239 -22 -4 c-16 -4 -13 -5 7 -4 l30 2 0 245 0 245 -30 2 c-20 1 -23 0 -7 -4z"/>
<path d="M13576 5529 c-10 -51 -7 -415 4 -443 6 -18 17 -26 32 -25 l23 0 -22 9 c-23 9 -23 10 -23 244 l0 235 23 4 c20 4 19 4 -4 6 -22 1 -28 -4 -33 -30z"/>
<path d="M18 4333 c12 -2 22 -8 22 -13 0 -5 -10 -11 -22 -13 l-23 -4 23 -2 c27 -1 30 -21 2 -21 -11 0 -20 -4 -20 -10 0 -5 9 -10 20 -10 20 0 20 -7 20 -429 l0 -430 -23 -4 -22 -4 23 -2 c29 -1 29 -18 -1 -24 l-22 -4 23 -2 c27 -1 30 -21 2 -21 -11 0 -20 -5 -20 -10 0 -7 25 -10 68 -8 l67 3 3 508 2 507 -72 -1 c-40 -1 -63 -4 -50 -6z m112 -498 l0 -495 -30 0 -30 0 0 495 0 495 30 0 30 0 0 -495z"/>
<path d="M13495 4288 c-3 -7 -4 -236 -3 -508 l3 -495 70 -2 c59 -2 66 -1 45 9 -25 11 -25 11 -2 15 12 3 22 8 22 13 0 5 -10 10 -22 13 -23 4 -23 4 2 15 24 10 24 11 3 11 l-23 1 0 430 c0 423 0 430 20 430 27 0 25 18 -2 23 -23 4 -23 5 2 13 l25 8 -25 7 -25 6 25 11 c21 9 15 11 -43 11 -45 1 -69 -3 -72 -11z m70 -498 l0 -495 -28 -3 -27 -3 0 501 0 501 27 -3 28 -3 0 -495z"/>
<path d="M6786 3437 c-28 -20 -18 -69 16 -81 51 -18 89 42 50 77 -22 20 -42 21 -66 4z m59 -37 c0 -30 -35 -40 -55 -15 -10 12 -10 18 0 30 20 25 55 15 55 -15z"/>
<path d="M6805 3410 c-8 -13 4 -32 16 -25 12 8 12 35 0 35 -6 0 -13 -4 -16 -10z"/>
<path d="M0 2970 c0 -6 95 -10 275 -10 l275 0 3 -1482 2 -1483 0 1490 0 1490 -277 3 c-183 1 -278 -1 -278 -8z"/>
<path d="M13075 2968 c-3 -7 -4 -679 -3 -1493 l3 -1480 3 1483 2 1482 275 0 c177 0 275 4 275 10 0 16 -549 13 -555 -2z"/>
<path d="M235 2890 l240 -5 5 -1445 5 -1445 0 1450 0 1450 -245 0 -245 1 240 -6z"/>
<path d="M13152 1448 c1 -799 5 -1367 8 -1263 3 105 8 182 12 173 20 -49 120 -73 177 -44 62 33 85 130 45 191 -46 70 -170 72 -218 3 -15 -20 -16 87 -16 1180 l0 1202 238 3 237 2 -242 3 -243 2 2 -1452z m211 -948 c49 -54 33 -131 -35 -166 -66 -34 -148 16 -148 92 0 103 115 149 183 74z"/>
<path d="M13375 2353 c-34 -9 -72 -41 -85 -73 -16 -39 -8 -115 16 -142 41 -45 113 -60 165 -33 96 50 89 199 -11 239 -41 16 -50 17 -85 9z m98 -43 c30 -24 50 -78 42 -113 -11 -42 -57 -78 -102 -79 -48 0 -77 16 -99 58 -52 96 73 201 159 134z"/>
<path d="M4195 1327 c-3 -7 -4 -123 -3 -257 l3 -245 935 0 935 0 0 255 0 255 -933 3 c-748 2 -934 0 -937 -11z m1855 -247 l0 -250 -922 2 -923 3 -3 235 c-1 129 0 240 2 247 4 10 191 13 926 13 l920 0 0 -250z"/>
<path d="M4270 1237 c0 -13 -5 -28 -11 -34 -8 -8 -8 -13 0 -17 7 -5 11 -46 11 -106 0 -60 -4 -101 -11 -106 -8 -4 -8 -9 0 -17 6 -6 11 -24 11 -39 l0 -28 854 0 c545 0 857 4 861 10 5 8 9 212 6 328 l-1 32 -860 0 -860 0 0 -23z m508 -154 l-3 -128 -232 -3 -233 -2 0 130 0 130 235 0 236 0 -3 -127z m582 -13 l0 -130 -232 2 -233 3 -3 128 -3 127 236 0 235 0 0 -130z m590 0 l0 -130 -235 0 -235 0 0 130 0 130 235 0 235 0 0 -130z"/>
<path d="M7577 1333 c-4 -3 -7 -120 -7 -260 l0 -253 935 0 935 0 -2 258 -3 257 -926 3 c-509 1 -929 -1 -932 -5z m1853 -253 l0 -250 -925 0 -925 0 0 243 c0 134 3 247 7 250 3 4 420 7 925 7 l918 0 0 -250z"/>
<path d="M7650 1237 c0 -13 -5 -28 -11 -34 -8 -8 -8 -13 0 -17 7 -5 11 -46 11 -106 0 -60 -4 -101 -11 -106 -8 -4 -8 -9 0 -17 6 -6 11 -24 11 -39 l0 -28 854 0 c560 0 857 3 861 10 5 8 8 184 6 328 l-1 32 -860 0 -860 0 0 -23z m500 -157 l0 -130 -232 2 -233 3 -3 128 -3 127 236 0 235 0 0 -130z m590 -10 l0 -130 -232 2 -233 3 -3 128 -3 127 236 0 235 0 0 -130z m590 0 l0 -130 -235 0 -235 0 0 130 0 130 235 0 235 0 0 -130z"/>
<path d="M129 845 c-55 -30 -78 -102 -53 -164 30 -73 121 -103 189 -61 82 51 87 158 9 219 -32 25 -105 28 -145 6z m136 -36 c30 -26 35 -37 35 -74 0 -77 -65 -128 -134 -105 -70 23 -99 109 -55 164 43 55 102 60 154 15z"/>
</g>
</svg>